<svg xmlns="http://www.w3.org/2000/svg" version="1.1" xmlns:xlink="http://www.w3.org/1999/xlink" xmlns:svgjs="http://svgjs.dev/svgjs" width="1500" height="1500" viewBox="0 0 1500 1500"><rect width="1500" height="1500" fill="#000000"></rect><g transform="matrix(0.6666666666666666,0,0,0.6666666666666666,248.44237400634313,189.33333333333348)"><svg viewBox="0 0 321 360" data-background-color="#f9f9f9" preserveAspectRatio="xMidYMid meet" height="1682" width="1500" xmlns="http://www.w3.org/2000/svg" xmlns:xlink="http://www.w3.org/1999/xlink"><g id="tight-bounds" transform="matrix(1,0,0,1,0.5000020560361236,0)"><svg viewBox="0 0 320 360" height="360" width="320"><g><svg></svg></g><g><svg viewBox="0 0 320 360" height="360" width="320"><g><path transform="translate(-15.58119,4.24857) scale(3.51065,3.51065)" d="M51.5 85.2c-0.4-0.5-0.8-0.2-0.8-0.5-2.4 0.6-6.9-1-8.8-0.8 0.4-0.6-0.6-0.5-0.6-0.9-0.4 0.6-0.8 0-1.4 0.2-0.6-1.5-3-0.4-3.3-2.3-1.4 0-1.9-0.8-3.3-1.6 0.1-0.1 0.2-0.1 0.3-0.2-0.7-0.1-0.7-0.5-1.3-0.5l0.2-0.4c-1.1-0.2-1.5-1.9-3.1-2.5-0.5-0.1-1.6-1.8-2.2-2.2-0.3-0.2-0.8-0.2-0.1-0.3-0.1-0.1-0.1-0.3 0-0.4-0.7-0.2-0.8-0.8-1.7-1.1-0.1-0.3 0.2-0.5 0-0.7-0.2-0.1-0.5 0.1-0.7 0-0.1 1.8 1.9 2 2.5 3.5-0.2-0.2-0.5-0.8-0.7-0.4-0.1 0.3 0.8 1.4 0.8 0.8-0.3 0.2-0.4-0.3-0.2-0.4 0.3 0.5 0.9 0.4 0.9 0.8-0.3 0.3-0.7-0.3-0.6 0.2 0.9 0.5 0.8 1 1.3 1.7-0.4-0.5-0.5 0.4-0.9 0-0.1-1.5-1.8-1.2-1.8-2.7-0.2-0.5-0.4-0.1-0.7-0.3 0.4-0.4-1.2-1.8-1.2-1.3-0.5-0.6-0.2-0.8-0.3-1.2-0.4-0.1-0.1 0.4-0.4 0.1 0.4-0.7-0.5-1.6-1.1-2.3l0.4-0.2c-0.7-0.4-0.8-1.2-1.3-2.1-0.6 0.9 1.2 2.9 0.9 3.3 0 0.1 0.7 0.9 0.9 1.3 0.8 1.4 1.4 3.1 2.5 3.9-0.2-0.1-0.1-0.7 0.2-0.4 0 0.3-0.2 0.6-0.2 0.9 0.6 0.6 1.1 1.1 1.7 1.7-1.3-0.8-2.6-1.6-3.5-2.8 0.5-0.1 1 0.8 1.4 0.7-1-0.8-0.7-1.1-1.1-2.1-0.4-0.3 0.1 0.4-0.3 0.5-1.3-1.2-2.3-1.9-2.9-3 0.1-0.1 0.2-0.2 0.2-0.4-0.1-0.1-0.1-0.1-0.2-0.2 0.6 0.6 0.8 1.1 1.5 1.2-0.3-0.3 0-0.4-0.4-0.7-0.2-0.4-0.5 0.2-0.7-0.1 0.2-0.3 0-0.7 0-1-0.2 0-0.4 0-0.5-0.3-0.2-0.1-0.3 0-0.4 0.2-0.1-0.1-0.1-0.3-0.2-0.4v-0.1c-0.1-0.1-0.2-0.3-0.3-0.4-0.8-2.1-1.3-4.9-2.4-6.7 0.3-1.2-0.2-3.6-0.5-4.2 0.3-0.5 0.1-2.8-0.1-3.2-0.5 0.2 0.1 1.3-0.4 1.6-0.5-2.2 0.3-4.7 0.1-6.7 0.2 0 0.4 0 0.4-0.1-0.3-0.3 0.2-0.9 0.1-1.6 0.4-0.9-0.9 1.3-0.9 2.2-0.1 0.2-0.5 0-0.4 0.5 0 0.7 0.2 2.1-0.2 3.1-0.2 0-0.2-0.2-0.4-0.1-0.1 0.5-0.2 1.1-0.3 1.6-0.1-0.2-0.2-0.5-0.2-0.6-0.5-2.5 0-5.4-0.2-7.5 0.4 0 0.4-0.6 0.7-0.8-0.1 0.8-0.3 1.8 0.2 2 0.4-3.9 1.2-8.2 3-12.4 1.3-3.1 3.2-6.2 5.5-8.7 0.2 0.3-0.1 1 0 1.3 2-2.1 3.3-4.6 5.5-6 0.1 0.5-0.9 0.9-0.9 1.3 0.9-0.9 1.2-0.6 2.2-0.9 0.3-0.4-0.4 0-0.5-0.4 0.6-0.4 1-0.9 1.4-1.2 0 0.1-0.1 0.1-0.1 0.2 1.1-0.3 1.2-0.9 2-1.1-0.1-0.1-0.3-0.2-0.6-0.1 0.2-0.1 0.5-0.3 0.8-0.4-0.1 0-0.1 0.1-0.2 0.1 0.6-0.3 0.1 0.1 0.1 0.3 0.1 0 0.2-0.1 0.2-0.1-0.6 0.4-1 0.6-1.2 1.3 0.3-0.2 0.4 0 0.8-0.3 0.4-0.2-0.1-0.5 0.2-0.7 0.3 0.2 0.7 0.1 1 0.1 0-0.2 0.1-0.4 0.3-0.5 0.1-0.2 0-0.3-0.1-0.3 0.1-0.1 0.2-0.1 0.4-0.2 0 0 0.1 0 0.1 0.1 1.7-0.8 3.6-1.5 5.4-2.1 1.1-0.1 2.5-0.1 3.1-0.8-0.2 0-0.4 0.1-0.5 0 0.1 0 0.3-0.1 0.4-0.1 0.2 0.2 0.5 0 0.2 0.4 0.1 0 0.1 0 0.2-0.1 0 0.1 0 0.1 0.1 0.2 0.1 0 0.2-0.1 0.3-0.3 0.1 0 0.2 0 0.3-0.1l-0.1 0.1c0.8-0.2 1.5-0.1 2.6-0.3 0-0.1 0-0.2 0-0.3 0.2 0 0.3-0.1 0.5-0.1v0.1c0.4-0.2 0.8 0.2 0.8 0 0.1 0 0.1 0 0.2 0 0 0.2-0.1 0.3-0.1 0.4 0.5 0 0.8 0 1-0.3-0.1-0.1-0.2-0.1-0.3-0.1 0.2 0 0.4-0.1 0.6-0.2 0.3 0.1 0.4 0.2 0.4 0.6 0.5-0.9 2.1 0.2 2.8 0 0.3 0 0.2-0.4 0.4-0.6 0.1 0 0.2 0 0.3 0 0.5 0.4 1.2 0.8 2.1 0.9-0.8-0.2 0.1-0.3 0.2-0.4-0.2 0-0.2-0.1-0.2-0.2 0.3 0 0.6 0.1 0.9 0.1 0 0.2 0.1 0.3 0.3 0.3 0.2 0 0.2-0.1 0.2-0.3 0.3 0 0.5 0 0.8 0.1-0.1 0.4 0.5 0.5 0.7 0.8-0.8-0.2-1.7-0.5-2 0 3.2 0.7 6.7 1.7 10.1 3.4 0 0 0 0 0 0.1h0.1c0.6 0.3 1.2 0.6 1.8 0.9 0.4 0.2 0.7 0.4 1.1 0.7 0 0.1 0 0.2 0.2 0.2h0.1c0.4 0.3 0.8 0.5 1.2 0.8 0.4 0.6 0.8 1.4 1.5 1.2 1.5 2.3 3.1 3.2 4.4 5.6 0.1-0.4 0.4 0.9 0.9 1-0.8-0.1 0.5 0.5-0.3 0.4 0.7 0.7 0.9 1 1 1.8-0.2-0.4-0.3-0.5-0.4-0.1-0.1 0.6 0.7-0.1 1 0.5-0.6 0-0.4 0.4-0.3 0.9 0.3-0.3 0.2-0.6 0.5-0.5 0.4 0.4-0.2 0.5-0.1 0.8 0.3-0.4 0.4-0.2 0.8 0-0.5 0.1 0.3 0.8-0.3 0.5 0.4 0.5 0.5 0.8 0.3 1.3-0.4-0.6-0.1-1-0.7-0.9 1.2 1 0.6 3.3 2 3.5-0.9 0.2 0 0.6-0.5 0.7 0.6 0.2 0.3 1 1 1.2-0.1 0.5-0.3 0.8-0.4 1.3 0.3 0.4 0.4 1.2 0.9 1.3-0.3 0.3-0.1 1.1-0.4 1.4 0.4-0.2 0.6-0.2 0.9 0.2-0.5 0.4-0.1 0.8-0.4 0.9 0.9 2.3-0.2 7 0.3 8.8-0.6-0.3-0.4 0.7-0.8 0.7 0.7 0.3 0.1 0.8 0.4 1.3-1.4 0.8 0 3-1.9 3.5 0.2 1.4-0.6 2-1.2 3.5-0.1-0.1-0.1-0.2-0.2-0.3-0.1 0.7-0.5 0.8-0.3 1.4l-0.4-0.2c0 1.1-1.7 1.7-2.1 3.4-0.1 0.5-1.6 1.8-2 2.5-0.2 0.3-0.1 0.8-0.3 0.1-0.1 0.1-0.3 0.1-0.4 0.1-0.1 0.7-0.7 0.9-0.9 1.8-0.2 0.1-0.5-0.2-0.7 0.1 0 0.2 0.2 0.5 0.1 0.7 1.8-0.1 1.8-2.2 3.2-2.9-0.1 0.3-0.7 0.6-0.3 0.8 0.3 0 1.2-1 0.7-0.9 0.3 0.2-0.3 0.4-0.4 0.3 0.5-0.4 0.3-0.9 0.7-1 0.3 0.2-0.3 0.7 0.3 0.6 0.4-0.9 0.9-1 1.5-1.5-0.4 0.4 0.5 0.5 0.1 0.9-1.5 0.3-1 2-2.5 2.2-0.4 0.3-0.1 0.4-0.2 0.7-0.5-0.3-1.6 1.4-1.2 1.3-0.5 0.5-0.8 0.3-1.2 0.4-0.1 0.4 0.4 0.1 0.2 0.4-0.7-0.3-1.6 0.7-2.2 1.4l-0.3-0.3c-0.3 0.8-1.1 0.9-2 1.5 1 0.5 2.7-1.6 3.2-1.3 0.1 0 0.9-0.8 1.2-1.1 1.3-1 2.9-1.8 3.5-2.9-0.1 0.2-0.7 0.2-0.4-0.1 0.3-0.1 0.6 0.1 0.9 0.1 1.6-2.2 3.6-4 5.1-6.6 0.1-0.1 0.2-0.3 0.3-0.5-0.2 0.6-0.5 1.1-0.7 1.7-1.6 1.1-2.2 4.3-4.1 4.8 0.1 1.1-0.9 1.4-1.4 2.7-0.3 0.4-0.5-0.3-0.8 0.2 0.3 1.4-2.5 1.3-2.4 2.6-0.2 0.1-0.5 0.2-0.7 0.4h-0.1c-0.1 0.1-0.1 0.1-0.2 0.2-0.5 0.3-0.9 0.6-1.3 0.9-1.4 0.8-3.3 1.4-4.8 2.2v-0.1c-0.4 0.2-0.9 0.1-0.8 0.5-0.3 0.2-0.6 0.4-0.9 0.6-0.1 0-0.1 0-0.2 0 0 0-0.1-0.1-0.2-0.1-0.2 0-0.2 0-0.3 0.1-1.3 0.1-3 0.7-3.5 1.1-0.5-0.3-2.8 0.2-3.2 0.4 0.2 0.3 0.8 0 1.3 0-0.3 0.1-0.6 0.2-0.7 0.4-0.1 0-0.1 0-0.2 0-0.1-0.3-0.4 0-0.5-0.1h0.1c-0.1-0.4-0.4-0.6-0.9-0.5 0 0.2 0 0.3-0.1 0.5 0.2 0 0.8-0.3 0.8 0-0.1 0-0.1 0.1 0 0.1-0.2 0.2-0.5 0.2-0.7 0.3-0.4 0-0.9 0-1.3 0-0.1-0.1-0.2-0.1-0.4-0.2-0.1 0.1-0.3 0.1-0.4 0.2-0.6 0-1.3 0.1-1.8 0.2 0-0.2 0-0.4-0.2-0.4-0.3 0.4-0.9-0.1-1.6 0.1-0.7-0.2 0.4 0.3 1.4 0.5-0.1 0.1-0.2 0.2-0.5 0.3M37.5 86.6c-1.4-1.3-4.3-1.9-4.8-2.9-0.8-0.1-2-1.6-3-1.8 0.5 0 0.1-0.3 0-0.5-0.2 0.2-0.4 0.3-0.6 0.3 0-0.8-0.8-1.3-1.5-1.8 0.5 0.3 0.9 0.5 1.5 0.6 0-0.2 0-0.4 0.2-0.4 0.7 0.7 1.5 1.4 2.4 2.1 1.2 1.1 7.4 3.9 8.5 4.4 0 0-0.2 0.4-0.1 0.4 0.5 0.3 0.9-0.3 1 0.4-1.6 0.2-2.2-0.9-3.6-0.8M83.6 63.4v0.1 0c-0.1 0 0-0.1 0-0.1M43.2 17.1c-0.1 0.1-0.2 0.1-0.2 0.1 0-0.1 0.1-0.1 0.2-0.1M41.3 17.6c0 0.1 0 0.1 0 0 0 0.1 0 0.1 0 0 0 0.1 0 0 0 0M34.7 19.7v0c0.1-0.1 0.1-0.1 0.2-0.1-0.1 0-0.2 0.1-0.2 0.1M50.7 16.4c-0.2 0-0.3 0-0.4-0.1 0.1 0 0.2 0 0.3 0h0.1c0 0 0 0 0 0.1M52.5 16.6c-0.1-0.1-0.4-0.2-0.7-0.2 0-0.1 0.1-0.2 0.1-0.2 0.1 0 0.2 0 0.3 0 0 0 0.1 0 0.1 0.1 0 0 0 0 0-0.1 0.1 0 0.1 0 0.2 0 0.1 0.2 0.2 0.3 0 0.4M55.8 16.9c-0.5 0.1-0.8-0.1-1.3-0.4 0.3 0 0.7 0.1 1 0.2 0.1 0 0.2 0.1 0.3 0.2M91.4 31.1c-0.2 0.1-0.3 0.1-0.5-0.3-1.6-3.4-4.5-8.3-8.7-12.4-4.1-4.2-9.6-7.6-14.6-9.4 0.3 0.1 0.7 0.3 0.5 0.5-4.4-1.7-8.6-2.7-12.6-3.1-10.8-1.7-22.1 0.6-30.8 6.2 0.1 0.2 0.1 0.3-0.2 0.5-3.2 2-7.7 5.5-11.3 10.1-3.6 4.6-6.4 10.4-7.6 15.6 0.1-0.3 0.2-0.8 0.4-0.6-2.6 10.3-1.9 19.1 1.7 26.7 0.2-0.2-0.5-1.2 0.1-1.1 0.4 1.1 0.9 2.3 1.5 3.4 0.7 1.6 1.5 3.7 2.6 4.2-2.8-5.5-4.7-11.8-4.9-17.4 0.4 0.8 0.3 2.5 0.9 3.2 0.2-3.8-0.7-8.9 0.6-12.5-0.3 1.9-0.5 4.5-0.3 7.1 0 1.9 0.9 7.2 1.5 7.7-0.1-0.1-0.1-0.6 0-0.6 0.3 0.6-0.4 0.9 0.1 1 0-0.2 0.1-0.2 0.2-0.2 1 2.2 2.3 5.6 3.3 7.3 1.2 2.2 2.8 4.2 4.6 6 0 0.1 0.1 0.1 0.1 0.2 0.2 0.5 0.9 1.1 1.1 1.5 0.1 0.2-0.1 0.5 0 0.7 1.5 2.8 3.7 5.6 6.4 7.8 1.7 2 4.4 4.1 7.7 5.9 3.2 1.7 6.9 3.1 10.3 3.9 2.4 0.6 5.3 0.7 7.1 1.1 2.4 0.5 6.6-0.2 8.7-0.6 12.6-1.9 25.1-10.5 31.4-22.9 6.5-12.5 6.3-27.8 0.7-39.5" fill="#ffffff" fill-rule="nonzero" stroke="none" stroke-width="1" stroke-linecap="butt" stroke-linejoin="miter" stroke-miterlimit="10" stroke-dasharray="" stroke-dashoffset="0" font-family="none" font-weight="none" font-size="none" text-anchor="none" style="mix-blend-mode: normal" data-fill-palette-color="tertiary"></path></g><g transform="matrix(1,0,0,1,80.00000000000001,154.21392884363843)"><svg viewBox="0 0 159.99999999999997 51.57214231272312" height="51.57214231272312" width="159.99999999999997"><g><svg viewBox="0 0 270.2667134727957 87.11395881006865" height="51.57214231272312" width="159.99999999999997"><g transform="matrix(1,0,0,1,110.26671347279571,19.440352825467325)"><svg viewBox="0 0 160 48.233253159134" height="48.233253159134" width="160"><g id="textblocktransform"><svg viewBox="0 0 160 48.233253159134" height="48.233253159134" width="160" id="textblock"><g><svg viewBox="0 0 160 48.233253159134" height="48.233253159134" width="160"><g transform="matrix(1,0,0,1,0,0)"><svg width="160" viewBox="-0.10864202468800002 -36.867542323951994 169.638642024688 51.147195917788" height="48.233253159134" data-palette-color="#000000"><path d="M24.85-17.4L24.85-17.4Q24.8-17.25 24.68-17 24.55-16.75 24.4-16.48 24.25-16.2 24.1-16.03 23.95-15.85 23.9-15.9L23.9-15.9Q23.9-15.9 23.95-16.15 24-16.4 24.08-16.7 24.15-17 24.23-17.28 24.3-17.55 24.3-17.65L24.3-17.65Q25.05-21.65 24.3-24.55 23.55-27.45 21.78-29.3 20-31.15 17.43-32.05 14.85-32.95 12-33L12-33Q9.95-33 7.98-32.68 6-32.35 4.38-31.85 2.75-31.35 1.63-30.75 0.5-30.15 0.2-29.6L0.2-29.6Q-0.15-29 0-29.75L0-29.75Q0.4-31.05 2.13-32.15 3.85-33.25 6.15-33.95 8.45-34.65 10.98-34.88 13.5-35.1 15.55-34.6L15.55-34.6Q16.9-34.3 18.25-33.75 19.6-33.2 20.83-32.43 22.05-31.65 23.08-30.58 24.1-29.5 24.8-28.1L24.8-28.1Q26.15-25.4 26.13-22.53 26.1-19.65 24.85-17.4ZM28.1-17.75L28.1-17.75Q27.15-14.95 25.58-12.7 24-10.45 22.2-8.68 20.4-6.9 18.5-5.6 16.6-4.3 14.95-3.4L14.95-3.4Q14.45-3.15 14.1-3 13.75-2.85 13.75-2.95L13.75-2.95Q13.65-3 14.03-3.28 14.4-3.55 14.8-3.85L14.8-3.85Q17.6-6.1 20.23-8.6 22.85-11.1 24.95-14.3L24.95-14.3Q26-15.95 26.55-17.93 27.1-19.9 27.1-22 27.1-24.1 26.53-26.15 25.95-28.2 24.75-29.95L24.75-29.95Q23.15-32.25 20.88-33.6 18.6-34.95 16-35.48 13.4-36 10.65-35.8 7.9-35.6 5.35-34.85L5.35-34.85Q4.95-34.75 4.88-34.7 4.8-34.65 4.75-34.75L4.75-34.75Q4.7-34.85 4.9-34.95 5.1-35.05 5.25-35.15L5.25-35.15Q6.35-35.75 8.1-36.25 9.85-36.75 12.05-36.85 14.25-36.95 16.75-36.48 19.25-36 21.8-34.65L21.8-34.65Q24.55-33.15 26.08-30.85 27.6-28.55 28.2-26.13 28.8-23.7 28.7-21.43 28.6-19.15 28.1-17.75ZM6.35-0.6L6.35-0.6Q6.1-1 5.73-1.88 5.35-2.75 5.15-3.95L5.15-3.95Q5.05-4.55 5.03-5.3 5-6.05 5.05-6.73 5.1-7.4 5.2-7.85 5.3-8.3 5.5-8.3L5.5-8.3Q5.55-8.3 5.63-8.03 5.7-7.75 5.78-7.4 5.85-7.05 5.88-6.73 5.9-6.4 5.9-6.25L5.9-6.25Q6-4.95 6.23-3.65 6.45-2.35 6.9-1.15L6.9-1.15Q8.65-3.3 10.9-5.5 13.15-7.7 15.3-9.98 17.45-12.25 19.23-14.65 21-17.05 21.8-19.6L21.8-19.6Q22.35-21.35 22.03-23.25 21.7-25.15 20.75-26.7L20.75-26.7Q19.8-28.2 18.05-29.2 16.3-30.2 14.2-30.6L14.2-30.6Q13.35-30.75 12.53-30.85 11.7-30.95 10.8-30.95L10.8-30.95Q10.95-30.2 10.98-29.33 11-28.45 10.95-27.6 10.9-26.75 10.8-25.98 10.7-25.2 10.55-24.6L10.55-24.6Q9.85-21.9 8.9-19.18 7.95-16.45 6.9-13.95L6.9-13.95Q6.8-13.8 6.63-13.48 6.45-13.15 6.35-13.15L6.35-13.15Q6.25-13.15 6.25-13.55 6.25-13.95 6.3-14.1L6.3-14.1Q6.35-14.7 6.5-15.58 6.65-16.45 6.83-17.35 7-18.25 7.2-19.13 7.4-20 7.6-20.6L7.6-20.6Q7.7-20.9 7.98-22.05 8.25-23.2 8.55-24.7 8.85-26.2 9.13-27.88 9.4-29.55 9.5-30.95L9.5-30.95 8.9-30.95Q8.8-29 8.35-26.95 7.9-24.9 7.28-22.83 6.65-20.75 5.98-18.65 5.3-16.55 4.8-14.45L4.8-14.45Q4.7-14 4.53-12.9 4.35-11.8 4.25-10.43 4.15-9.05 4.15-7.53 4.15-6 4.38-4.63 4.6-3.25 5.05-2.15 5.5-1.05 6.35-0.6ZM22.95-18.15L22.95-18.15Q21.85-15.55 19.93-13.15 18-10.75 15.75-8.53 13.5-6.3 11.13-4.3 8.75-2.3 6.8-0.5L6.8-0.5Q6.4-0.15 5.78-0.43 5.15-0.7 4.85-1.1L4.85-1.1Q3.8-2.5 3.3-4.25 2.8-6 2.7-7.88 2.6-9.75 2.83-11.68 3.05-13.6 3.5-15.4L3.5-15.4Q4.5-19.55 5.78-23.43 7.05-27.3 7.65-30.8L7.65-30.8Q4.95-30.5 2.83-29.58 0.7-28.65 0-27.35L0-27.35Q0-27.25-0.08-27.25-0.15-27.25-0.05-27.65L-0.05-27.65Q0.35-29.05 1.9-30.08 3.45-31.1 5.6-31.68 7.75-32.25 10.23-32.35 12.7-32.45 15.05-32.05L15.05-32.05Q17.6-31.6 19.48-30.13 21.35-28.65 22.43-26.68 23.5-24.7 23.68-22.45 23.85-20.2 22.95-18.15ZM12.2-29.5L12.2-29.5Q12.8-28.2 12.68-26.1 12.55-24 12.1-21.73 11.65-19.45 11.08-17.35 10.5-15.25 10.2-13.95L10.2-13.95Q9.6-11.55 8.75-9.15 7.9-6.75 7.35-4.95L7.35-4.95Q7.1-4.25 7-4.25L7-4.25Q6.85-4.25 6.85-4.53 6.85-4.8 6.85-5.05L6.85-5.05Q7-8.75 7.93-12.35 8.85-15.95 9.95-19.65L9.95-19.65Q10.6-21.9 11.2-24.35 11.8-26.8 11.9-29.5L11.9-29.5Q11.9-29.85 12-29.9L12-29.9Q12.05-29.9 12.1-29.75 12.15-29.6 12.2-29.5ZM18.15-8.75L18.15-8.75Q18.2-8.7 17.95-8.35 17.7-8 17.32-7.58 16.95-7.15 16.57-6.73 16.2-6.3 16.05-6.15L16.05-6.15Q15-5.1 13.93-4.03 12.85-2.95 11.7-2.2L11.7-2.2 7.2 0.65Q7.1 0.7 6.93 0.75 6.75 0.8 6.65 0.75L6.65 0.75Q6.55 0.7 6.58 0.6 6.6 0.5 6.65 0.4L6.65 0.4Q6.7 0.3 6.8 0.2L6.8 0.2Q7.65-0.4 8.72-1.3 9.8-2.2 10.95-3.15L10.95-3.15Q11.8-3.8 12.98-4.8 14.15-5.8 15.28-6.7 16.4-7.6 17.23-8.22 18.05-8.85 18.15-8.75ZM44.6-20.4L44.6-20.4Q45-19.9 45.22-19.15 45.45-18.4 45.4-17.53 45.35-16.65 45-15.7 44.65-14.75 43.9-13.85L43.9-13.85Q42.45-12.15 40.72-11.23 39-10.3 37.6-10.3L37.6-10.3Q36.75-10.3 37.6-10.6L37.6-10.6Q38.05-10.75 38.67-11.08 39.3-11.4 40-11.88 40.7-12.35 41.42-13 42.15-13.65 42.75-14.5L42.75-14.5Q43.75-15.9 43.92-17.23 44.1-18.55 43.4-19.25L43.4-19.25Q42.8-19.85 42-19.93 41.2-20 39.6-19.05L39.6-19.05Q38.15-18.2 37-16.95 35.85-15.7 34.85-14.3L34.85-14.3Q34.3-13.6 34.12-13.6 33.95-13.6 34.25-14.5L34.25-14.5Q34.85-16.25 35.92-17.75 37-19.25 38.5-20.3L38.5-20.3Q39.6-21.05 40.52-21.35 41.45-21.65 42.22-21.6 43-21.55 43.6-21.23 44.2-20.9 44.6-20.4ZM47.3-16.9L47.3-16.9Q47.1-15.7 46.67-14.88 46.25-14.05 45.72-13.48 45.2-12.9 44.67-12.55 44.15-12.2 43.75-11.9L43.75-11.9Q43.55-11.75 43.45-11.85 43.35-11.95 43.6-12.2L43.6-12.2Q44.5-12.95 45.42-14.23 46.35-15.5 46.4-17.05L46.4-17.05Q46.4-19.7 45.1-21.1L45.1-21.1Q43.8-22.5 41.85-22.33 39.9-22.15 37.8-20.8L37.8-20.8Q36.45-19.95 35.42-18.82 34.4-17.7 33.65-16.43 32.9-15.15 32.42-13.8 31.95-12.45 31.75-11.1L31.75-11.1Q31.55-9.8 31.37-8.3 31.2-6.8 31.37-5.35 31.55-3.9 32.3-2.58 33.05-1.25 34.65-0.3L34.65-0.3Q34.9-0.15 35.17-0.1 35.45-0.05 35.45 0L35.45 0Q35.45 0.1 35.2 0.13 34.95 0.15 34.65 0.05L34.65 0.05Q33.4-0.2 32.52-0.98 31.65-1.75 31.1-2.75 30.55-3.75 30.25-4.85 29.95-5.95 29.9-6.85L29.9-6.85Q29.6-10.8 31-14.65L31-14.65Q31.3-15.45 31.77-16.45 32.25-17.45 32.95-18.48 33.65-19.5 34.6-20.48 35.55-21.45 36.75-22.2L36.75-22.2Q37.9-22.9 39.15-23.25 40.4-23.6 41.65-23.58 42.9-23.55 44-23.13 45.1-22.7 45.95-21.85L45.95-21.85Q46.7-21.05 47.12-19.8 47.55-18.55 47.3-16.9ZM42.75-18.7L42.75-18.7Q43.35-18 42.9-16.53 42.45-15.05 40.8-13.55L40.8-13.55Q39.9-12.7 39.05-12.18 38.2-11.65 36.9-11.25L36.9-11.25Q36.35-9.35 36.2-7.5 36.05-5.65 36.3-4.5L36.3-4.5Q36.35-4.05 36.62-3.63 36.9-3.2 37.42-2.98 37.95-2.75 38.8-2.8 39.65-2.85 40.9-3.35L40.9-3.35Q41.25-3.5 41.32-3.43 41.4-3.35 41-3.1L41-3.1Q40.1-2.4 39.1-2.13 38.1-1.85 37.22-1.95 36.35-2.05 35.72-2.55 35.1-3.05 34.9-3.9L34.9-3.9Q34.5-5.65 34.55-7.55 34.6-9.45 35.12-11.3 35.65-13.15 36.62-14.78 37.6-16.4 39.05-17.55L39.05-17.55Q41.75-19.7 42.75-18.7ZM42.25-2.75L42.25-2.75Q41.9-2.25 41.37-1.78 40.85-1.3 40.17-0.93 39.5-0.55 38.77-0.3 38.05-0.05 37.3-0.05L37.3-0.05Q36-0.05 34.87-0.63 33.75-1.2 33.15-2.95L33.15-2.95Q33.05-3.15 33.05-3.33 33.05-3.5 33.15-3.5L33.15-3.5Q33.35-3.6 33.55-3.38 33.75-3.15 33.95-2.9L33.95-2.9Q34.5-2.25 35.37-1.75 36.25-1.25 37.05-1.25L37.05-1.25Q38.55-1.25 39.65-1.7 40.75-2.15 41.75-2.9L41.75-2.9Q42-3.05 42.32-3.2 42.65-3.35 42.25-2.75ZM41.55-17.35L41.55-17.35Q41.35-17.75 40.1-16.7L40.1-16.7Q38.95-15.8 38.27-14.63 37.6-13.45 37.1-12.05L37.1-12.05Q38.05-12.5 38.85-13.08 39.65-13.65 40.35-14.2L40.35-14.2Q41.1-14.85 41.45-15.9 41.8-16.95 41.55-17.35ZM61.65-15.75L61.65-15.75Q60.8-14 59.65-12.23 58.5-10.45 57.25-9.05L57.25-9.05Q57.2-8.95 57-8.72 56.8-8.5 56.65-8.55L56.65-8.55Q56.55-8.65 56.6-8.9 56.65-9.15 56.7-9.3L56.7-9.3Q56.95-10.1 57.45-11.4 57.95-12.7 58.5-13.5L58.5-13.5Q58.65-13.75 59.12-14.9 59.6-16.05 60.05-17.48 60.5-18.9 60.75-20.25 61-21.6 60.7-22.25L60.7-22.25Q60.7-22.25 60.7-22.4L60.7-22.4 60.7-22.45Q60.9-22.45 61-22.25L61-22.25Q61.55-21.6 61.82-20.75 62.1-19.9 62.15-19 62.2-18.1 62.07-17.23 61.95-16.35 61.65-15.75ZM63.3-18.85L63.3-18.85Q63.85-17.8 63.62-16.32 63.4-14.85 62.82-13.3 62.25-11.75 61.52-10.38 60.8-9 60.35-8.15L60.35-8.15Q59.6-6.7 58.52-5.23 57.45-3.75 56.55-2.6L56.55-2.6Q56.3-2.25 56.1-2.25L56.1-2.25Q56-2.35 56.02-2.5 56.05-2.65 56.1-2.8L56.1-2.8Q56.9-5.4 58.1-7.63 59.3-9.85 60.6-12.25L60.6-12.25Q61.45-13.75 62.12-15.33 62.8-16.9 63.05-18.8L63.05-18.8Q63.05-19.05 63.1-19.05L63.1-19.05Q63.25-19.05 63.3-18.85ZM52.65-17.2L52.65-17.2Q52.65-15.35 52.37-13.2 52.1-11.05 51.8-9.5L51.8-9.5Q51.8-9.4 51.72-9.15 51.65-8.9 51.45-8.85L51.45-8.85Q51.35-8.85 51.27-9.1 51.2-9.35 51.15-9.45L51.15-9.45Q51.05-9.85 50.97-10.43 50.9-11 50.85-11.6 50.8-12.2 50.77-12.8 50.75-13.4 50.8-13.85L50.8-13.85Q50.85-14.15 50.75-15.35 50.65-16.55 50.45-17.95 50.25-19.35 49.9-20.63 49.55-21.9 49.05-22.4L49.05-22.4Q48.95-22.5 48.92-22.63 48.9-22.75 48.95-22.75L48.95-22.75Q49.05-22.75 49.17-22.7 49.3-22.65 49.4-22.6L49.4-22.6Q50.1-22.3 50.7-21.65 51.3-21 51.72-20.23 52.15-19.45 52.4-18.65 52.65-17.85 52.65-17.2ZM55.45 0L55.45 0Q55.45 0.2 55.35 0.2L55.35 0.2Q55.3 0.2 55.17 0.13 55.05 0.05 54.95 0L54.95 0Q54.55-0.3 54.37-0.85 54.2-1.4 54.3-2.5L54.3-2.5Q54.3-2.95 54.4-3.5 54.5-4.05 54.65-4.53 54.8-5 54.95-5.28 55.1-5.55 55.25-5.5L55.25-5.5Q55.5-5.4 55.47-4.88 55.45-4.35 55.45-4.1L55.45-4.1Q55.4-2.8 55.4-1.75 55.4-0.7 55.45 0ZM52.6-2.55L52.6-2.55Q52.35-2.85 52.15-3.35 51.95-3.85 51.8-4.33 51.65-4.8 51.62-5.15 51.6-5.5 51.75-5.55L51.75-5.55Q52-5.6 52.22-5.28 52.45-4.95 52.6-4.65L52.6-4.65Q52.55-5.7 52.72-6.78 52.9-7.85 53-8.75L53-8.75Q53.15-10.05 53.25-11.08 53.35-12.1 53.4-13.55L53.4-13.55Q53.5-15.1 53.4-16.95 53.3-18.8 52.6-20.55L52.6-20.55Q52.55-20.7 52.65-20.7L52.65-20.7Q52.75-20.7 52.8-20.65 52.85-20.6 52.95-20.55L52.95-20.55Q53.6-20.05 54.02-19.18 54.45-18.3 54.67-17.23 54.9-16.15 54.97-14.98 55.05-13.8 55.05-12.75L55.05-12.75Q55.8-14.1 56.6-15.43 57.4-16.75 58-18.07 58.6-19.4 58.95-20.68 59.3-21.95 59.25-23.2L59.25-23.2Q59.25-23.4 59.3-23.45L59.3-23.45Q59.35-23.45 59.5-23.2L59.5-23.2Q60.2-21.55 59.95-19.88 59.7-18.2 58.92-16.53 58.15-14.85 57.1-13.18 56.05-11.5 55.25-9.85L55.25-9.85Q54.25-7.75 53.82-5.25 53.4-2.75 54.1 0L54.1 0 54.1 0.05Q54.05 0.1 54.05 0.1L54.05 0.1Q53.95 0.1 53.9 0.05L53.9 0.05Q53.85 0.05 53.85 0L53.85 0Q53.7-0.2 53.5-0.4 53.3-0.6 52.95-0.8L52.95-0.8Q51.5-1.55 50.55-2.55 49.6-3.55 49.07-4.7 48.55-5.85 48.32-7.1 48.1-8.35 48.1-9.6L48.1-9.6Q48.05-11.4 48.17-13.23 48.3-15.05 48.32-16.75 48.35-18.45 48.15-20.03 47.95-21.6 47.3-22.9L47.3-22.9Q47.3-23 47.3-23L47.3-23Q47.4-23.1 47.5-23.05 47.6-23 47.65-22.95L47.65-22.95Q48.95-21.75 49.4-20.15 49.85-18.55 49.9-16.75 49.95-14.95 49.75-13.05 49.55-11.15 49.6-9.3L49.6-9.3Q49.65-8.2 49.85-7.05 50.05-5.9 50.5-4.83 50.95-3.75 51.67-2.75 52.4-1.75 53.4-0.95L53.4-0.95Q53.2-1.45 53.1-1.68 53-1.9 52.6-2.55ZM88.14-17.4L88.14-17.4Q88.09-17.25 87.97-17 87.84-16.75 87.69-16.48 87.54-16.2 87.39-16.03 87.24-15.85 87.19-15.9L87.19-15.9Q87.19-15.9 87.24-16.15 87.29-16.4 87.37-16.7 87.44-17 87.52-17.28 87.59-17.55 87.59-17.65L87.59-17.65Q88.34-21.65 87.59-24.55 86.84-27.45 85.07-29.3 83.29-31.15 80.72-32.05 78.14-32.95 75.29-33L75.29-33Q73.24-33 71.27-32.68 69.29-32.35 67.67-31.85 66.04-31.35 64.92-30.75 63.79-30.15 63.49-29.6L63.49-29.6Q63.14-29 63.29-29.75L63.29-29.75Q63.69-31.05 65.42-32.15 67.14-33.25 69.44-33.95 71.74-34.65 74.27-34.88 76.79-35.1 78.84-34.6L78.84-34.6Q80.19-34.3 81.54-33.75 82.89-33.2 84.12-32.43 85.34-31.65 86.37-30.58 87.39-29.5 88.09-28.1L88.09-28.1Q89.44-25.4 89.42-22.53 89.39-19.65 88.14-17.4ZM91.39-17.75L91.39-17.75Q90.44-14.95 88.87-12.7 87.29-10.45 85.49-8.68 83.69-6.9 81.79-5.6 79.89-4.3 78.24-3.4L78.24-3.4Q77.74-3.15 77.39-3 77.04-2.85 77.04-2.95L77.04-2.95Q76.94-3 77.32-3.28 77.69-3.55 78.09-3.85L78.09-3.85Q80.89-6.1 83.52-8.6 86.14-11.1 88.24-14.3L88.24-14.3Q89.29-15.95 89.84-17.93 90.39-19.9 90.39-22 90.39-24.1 89.82-26.15 89.24-28.2 88.04-29.95L88.04-29.95Q86.44-32.25 84.17-33.6 81.89-34.95 79.29-35.48 76.69-36 73.94-35.8 71.19-35.6 68.64-34.85L68.64-34.85Q68.24-34.75 68.17-34.7 68.09-34.65 68.04-34.75L68.04-34.75Q67.99-34.85 68.19-34.95 68.39-35.05 68.54-35.15L68.54-35.15Q69.64-35.75 71.39-36.25 73.14-36.75 75.34-36.85 77.54-36.95 80.04-36.48 82.54-36 85.09-34.65L85.09-34.65Q87.84-33.15 89.37-30.85 90.89-28.55 91.49-26.13 92.09-23.7 91.99-21.43 91.89-19.15 91.39-17.75ZM69.64-0.6L69.64-0.6Q69.39-1 69.02-1.88 68.64-2.75 68.44-3.95L68.44-3.95Q68.34-4.55 68.32-5.3 68.29-6.05 68.34-6.73 68.39-7.4 68.49-7.85 68.59-8.3 68.79-8.3L68.79-8.3Q68.84-8.3 68.92-8.03 68.99-7.75 69.07-7.4 69.14-7.05 69.17-6.73 69.19-6.4 69.19-6.25L69.19-6.25Q69.29-4.95 69.52-3.65 69.74-2.35 70.19-1.15L70.19-1.15Q71.94-3.3 74.19-5.5 76.44-7.7 78.59-9.98 80.74-12.25 82.52-14.65 84.29-17.05 85.09-19.6L85.09-19.6Q85.64-21.35 85.32-23.25 84.99-25.15 84.04-26.7L84.04-26.7Q83.09-28.2 81.34-29.2 79.59-30.2 77.49-30.6L77.49-30.6Q76.64-30.75 75.82-30.85 74.99-30.95 74.09-30.95L74.09-30.95Q74.24-30.2 74.27-29.33 74.29-28.45 74.24-27.6 74.19-26.75 74.09-25.98 73.99-25.2 73.84-24.6L73.84-24.6Q73.14-21.9 72.19-19.18 71.24-16.45 70.19-13.95L70.19-13.95Q70.09-13.8 69.92-13.48 69.74-13.15 69.64-13.15L69.64-13.15Q69.54-13.15 69.54-13.55 69.54-13.95 69.59-14.1L69.59-14.1Q69.64-14.7 69.79-15.58 69.94-16.45 70.12-17.35 70.29-18.25 70.49-19.13 70.69-20 70.89-20.6L70.89-20.6Q70.99-20.9 71.27-22.05 71.54-23.2 71.84-24.7 72.14-26.2 72.42-27.88 72.69-29.55 72.79-30.95L72.79-30.95 72.19-30.95Q72.09-29 71.64-26.95 71.19-24.9 70.57-22.83 69.94-20.75 69.27-18.65 68.59-16.55 68.09-14.45L68.09-14.45Q67.99-14 67.82-12.9 67.64-11.8 67.54-10.43 67.44-9.05 67.44-7.53 67.44-6 67.67-4.63 67.89-3.25 68.34-2.15 68.79-1.05 69.64-0.6ZM86.24-18.15L86.24-18.15Q85.14-15.55 83.22-13.15 81.29-10.75 79.04-8.53 76.79-6.3 74.42-4.3 72.04-2.3 70.09-0.5L70.09-0.5Q69.69-0.15 69.07-0.43 68.44-0.7 68.14-1.1L68.14-1.1Q67.09-2.5 66.59-4.25 66.09-6 65.99-7.88 65.89-9.75 66.12-11.68 66.34-13.6 66.79-15.4L66.79-15.4Q67.79-19.55 69.07-23.43 70.34-27.3 70.94-30.8L70.94-30.8Q68.24-30.5 66.12-29.58 63.99-28.65 63.29-27.35L63.29-27.35Q63.29-27.25 63.22-27.25 63.14-27.25 63.24-27.65L63.24-27.65Q63.64-29.05 65.19-30.08 66.74-31.1 68.89-31.68 71.04-32.25 73.52-32.35 75.99-32.45 78.34-32.05L78.34-32.05Q80.89-31.6 82.77-30.13 84.64-28.65 85.72-26.68 86.79-24.7 86.97-22.45 87.14-20.2 86.24-18.15ZM75.49-29.5L75.49-29.5Q76.09-28.2 75.97-26.1 75.84-24 75.39-21.73 74.94-19.45 74.37-17.35 73.79-15.25 73.49-13.95L73.49-13.95Q72.89-11.55 72.04-9.15 71.19-6.75 70.64-4.95L70.64-4.95Q70.39-4.25 70.29-4.25L70.29-4.25Q70.14-4.25 70.14-4.53 70.14-4.8 70.14-5.05L70.14-5.05Q70.29-8.75 71.22-12.35 72.14-15.95 73.24-19.65L73.24-19.65Q73.89-21.9 74.49-24.35 75.09-26.8 75.19-29.5L75.19-29.5Q75.19-29.85 75.29-29.9L75.29-29.9Q75.34-29.9 75.39-29.75 75.44-29.6 75.49-29.5ZM81.44-8.75L81.44-8.75Q81.49-8.7 81.24-8.35 80.99-8 80.62-7.58 80.24-7.15 79.87-6.73 79.49-6.3 79.34-6.15L79.34-6.15Q78.29-5.1 77.22-4.03 76.14-2.95 74.99-2.2L74.99-2.2 70.49 0.65Q70.39 0.7 70.22 0.75 70.04 0.8 69.94 0.75L69.94 0.75Q69.84 0.7 69.87 0.6 69.89 0.5 69.94 0.4L69.94 0.4Q69.99 0.3 70.09 0.2L70.09 0.2Q70.94-0.4 72.02-1.3 73.09-2.2 74.24-3.15L74.24-3.15Q75.09-3.8 76.27-4.8 77.44-5.8 78.57-6.7 79.69-7.6 80.52-8.22 81.34-8.85 81.44-8.75ZM100.84-16.5L100.84-16.5Q100.99-17.15 101.02-18 101.04-18.85 100.89-19.75 100.74-20.65 100.37-21.48 99.99-22.3 99.39-22.9L99.39-22.9Q99.09-23.1 99.04-23.1L99.04-23.1Q98.84-23.1 99.04-22.8L99.04-22.8Q99.34-22.15 99.27-20.78 99.19-19.4 98.94-17.93 98.69-16.45 98.42-15.28 98.14-14.1 98.09-13.85L98.09-13.85Q97.74-12.95 97.47-11.6 97.19-10.25 97.19-9.4L97.19-9.4Q97.14-9.3 97.14-9 97.14-8.7 97.29-8.65L97.29-8.65Q97.34-8.65 97.49-8.9 97.64-9.15 97.74-9.25L97.74-9.25Q98.64-10.85 99.47-12.75 100.29-14.65 100.84-16.5ZM101.04-8.95L101.04-8.95Q101.24-9.85 101.69-11.28 102.14-12.7 102.44-14.23 102.74-15.75 102.74-17.23 102.74-18.7 102.14-19.65L102.14-19.65Q101.94-19.85 101.84-19.85L101.84-19.85Q101.74-19.85 101.79-19.65L101.79-19.65Q101.79-17.75 101.37-16.13 100.94-14.5 100.44-12.95L100.44-12.95Q99.59-10.4 98.89-7.98 98.19-5.55 98.29-3L98.29-3Q98.29-2.85 98.31-2.68 98.34-2.5 98.49-2.5L98.49-2.5Q98.59-2.5 98.64-2.6 98.69-2.7 98.79-2.9L98.79-2.9Q99.29-4.1 99.94-5.73 100.59-7.35 101.04-8.95ZM97.49 0L97.49 0Q96.54-1 96.04-2.23 95.54-3.45 95.34-4.73 95.14-6 95.24-7.3 95.34-8.6 95.64-9.75L95.64-9.75Q96.09-11.55 96.79-13.35 97.49-15.15 97.99-16.93 98.49-18.7 98.56-20.43 98.64-22.15 97.84-23.8L97.84-23.8Q97.69-24.05 97.64-24.05L97.64-24.05Q97.59-24.05 97.59-23.98 97.59-23.9 97.64-23.85L97.64-23.85Q97.79-22.35 97.44-20.75 97.09-19.15 96.54-17.48 95.99-15.8 95.31-14.03 94.64-12.25 94.19-10.4L94.19-10.4Q93.84-9.05 93.72-7.65 93.59-6.25 93.89-4.88 94.19-3.5 94.99-2.25 95.79-1 97.29 0.05L97.29 0.05Q97.39 0.15 97.54 0.18 97.69 0.2 97.49 0ZM97.89-1.9L97.89-1.9Q97.74-2.3 97.56-2.9 97.39-3.5 97.29-4.05L97.29-4.05Q97.19-4.25 97.04-4.8 96.89-5.35 96.79-5.35L96.79-5.35Q96.59-5.35 96.52-5 96.44-4.65 96.44-4.13 96.44-3.6 96.52-3.03 96.59-2.45 96.74-2.05L96.74-2.05Q97.04-1.05 97.47-0.65 97.89-0.25 98.59 0L98.59 0Q98.89 0.15 99.04 0.15L99.04 0.15Q99.09 0.15 99.06 0.08 99.04 0 98.99 0L98.99 0Q98.64-0.4 98.37-0.85 98.09-1.3 97.89-1.9ZM101.79-27.75L101.79-27.75Q101.54-27.75 101.02-27.83 100.49-27.9 100.49-28.3L100.49-28.3Q100.49-28.45 100.94-28.68 101.39-28.9 101.94-29.33 102.49-29.75 102.94-30.43 103.39-31.1 103.39-32.15L103.39-32.15Q103.39-33.45 102.89-34.1L102.89-34.1Q102.79-34.25 102.64-34.43 102.49-34.6 102.54-34.65L102.54-34.65Q102.64-34.65 102.77-34.58 102.89-34.5 102.94-34.45L102.94-34.45Q103.94-33.9 104.47-33.02 104.99-32.15 104.99-31.35L104.99-31.35Q104.99-29.75 104.24-28.75 103.49-27.75 101.79-27.75ZM99.94-29.75L99.94-29.75Q99.34-29.5 99.34-30.05L99.34-30.05Q99.34-30.45 99.64-30.83 99.94-31.2 100.22-31.65 100.49-32.1 100.59-32.68 100.69-33.25 100.29-34.1L100.29-34.1Q100.19-34.35 99.94-34.65 99.69-34.95 99.79-35L99.79-35Q99.89-35.05 100.22-34.93 100.54-34.8 100.64-34.75L100.64-34.75Q101.49-34.35 101.92-33.55 102.34-32.75 102.34-32.15L102.34-32.15Q102.34-31.2 101.56-30.58 100.79-29.95 99.94-29.75ZM98.49-32.45L98.49-32.45Q98.49-32.7 98.64-33.02 98.79-33.35 99.14-33.35L99.14-33.35Q99.39-33.35 99.54-33.02 99.69-32.7 99.69-32.45L99.69-32.45Q99.69-32.25 99.54-31.93 99.39-31.6 99.14-31.6L99.14-31.6Q98.79-31.6 98.64-31.9 98.49-32.2 98.49-32.45ZM122.14-22.2L122.14-22.35Q122.04-22.4 121.91-22.2 121.79-22 121.69-21.9L121.69-21.9Q120.94-20.95 120.34-19.55 119.74-18.15 119.31-16.6 118.89-15.05 118.61-13.5 118.34-11.95 118.14-10.75L118.14-10.75Q117.89-9.05 117.71-7.53 117.54-6 117.39-4.55 117.24-3.1 117.14-1.63 117.04-0.15 116.89 1.4L116.89 1.4Q116.94 1.45 116.94 1.68 116.94 1.9 116.94 2.13 116.94 2.35 116.94 2.53 116.94 2.7 117.04 2.7L117.04 2.7Q117.09 2.7 117.19 2.53 117.29 2.35 117.39 2.15 117.49 1.95 117.54 1.75 117.59 1.55 117.59 1.55L117.59 1.55Q118.14 0.35 118.54-1.25 118.94-2.85 119.19-4.45L119.19-4.45Q119.24-4.85 119.39-6.1 119.54-7.35 119.74-9 119.94-10.65 120.21-12.58 120.49-14.5 120.76-16.28 121.04-18.05 121.36-19.5 121.69-20.95 121.99-21.7L121.99-21.7Q122.04-21.9 122.09-22 122.14-22.1 122.14-22.2L122.14-22.2ZM120.49-22.55L120.49-22.55Q120.49-22.6 120.14-22.6L120.14-22.6Q119.99-22.6 119.84-22.55L119.84-22.55Q117.94-22.35 116.34-21.53 114.74-20.7 113.41-19.48 112.09-18.25 111.06-16.7 110.04-15.15 109.39-13.5L109.39-13.5Q108.69-11.8 108.34-9.9 107.99-8 108.09-6.35L108.09-6.35Q108.24-4.2 109.99-5.95L109.99-5.95Q111.49-7.45 112.81-9.2 114.14-10.95 115.31-12.9 116.49-14.85 117.54-16.88 118.59-18.9 119.64-20.95L119.64-20.95Q119.84-21.35 119.79-21.35L119.79-21.35Q119.69-21.45 119.56-21.35 119.44-21.25 119.44-21.15L119.44-21.15Q116.74-17.7 114.41-14.55 112.09-11.4 110.14-8.3L110.14-8.3Q109.89-8.05 109.81-8.15 109.74-8.25 109.79-8.5L109.79-8.5Q109.89-9.65 110.16-10.88 110.44-12.1 110.94-13.35L110.94-13.35Q112.14-16.4 114.39-18.75 116.64-21.1 120.04-22.25L120.04-22.25Q120.49-22.45 120.49-22.55ZM117.79-22.9L117.79-22.9Q117.74-23 117.56-23 117.39-23 117.24-23L117.24-23Q115.84-23 114.31-22.2 112.79-21.4 111.39-20.18 109.99-18.95 108.89-17.48 107.79-16 107.24-14.65L107.24-14.65Q106.54-12.85 106.06-11.18 105.59-9.5 105.54-7.8L105.54-7.8Q105.49-6.9 105.61-6.05 105.74-5.2 106.09-4.2L106.09-4.2Q106.29-3.6 106.76-3.25 107.24-2.9 107.76-2.8 108.29-2.7 108.84-2.8 109.39-2.9 109.79-3.2L109.79-3.2Q109.84-3.25 110.01-3.4 110.19-3.55 110.36-3.73 110.54-3.9 110.66-4.05 110.79-4.2 110.74-4.3L110.74-4.3Q110.69-4.4 110.26-4.17 109.84-3.95 109.54-3.9L109.54-3.9Q108.49-3.7 107.96-4.05 107.44-4.4 107.21-5.08 106.99-5.75 107.01-6.58 107.04-7.4 107.14-8.2L107.14-8.2Q107.14-8.5 107.26-9.25 107.39-10 107.69-11.08 107.99-12.15 108.51-13.45 109.04-14.75 109.79-16.05L109.79-16.05Q110.54-17.35 111.56-18.45 112.59-19.55 113.64-20.4 114.69-21.25 115.66-21.8 116.64-22.35 117.34-22.55L117.34-22.55Q117.69-22.65 117.74-22.73 117.79-22.8 117.79-22.9ZM123.84-23.25L123.84-23.45Q123.69-23.45 123.59-23.25L123.59-23.25Q123.54-23.15 123.49-23L123.49-23Q121.99-19.9 121.39-16.63 120.79-13.35 120.49-9.95 120.19-6.55 119.89-3.1 119.59 0.35 118.69 3.8L118.69 3.8Q118.39 4.9 118.09 6.1 117.79 7.3 117.29 8.45 116.79 9.6 115.96 10.63 115.14 11.65 113.74 12.35L113.74 12.35Q112.14 13.2 110.79 13.08 109.44 12.95 108.29 12.35 107.14 11.75 106.19 10.83 105.24 9.9 104.54 9.15L104.54 9.15Q104.44 9.05 104.34 8.93 104.24 8.8 104.19 8.85L104.19 8.85Q104.09 8.9 104.16 9.08 104.24 9.25 104.29 9.35L104.29 9.35Q105.44 11.5 107.79 13.1L107.79 13.1Q108.34 13.5 109.14 13.8 109.94 14.1 110.86 14.23 111.79 14.35 112.76 14.18 113.74 14 114.64 13.4L114.64 13.4Q116.29 12.3 117.26 11.08 118.24 9.85 118.84 8.58 119.44 7.3 119.76 5.95 120.09 4.6 120.39 3.3L120.39 3.3Q121.24-0.1 121.56-3.48 121.89-6.85 122.09-10.15 122.29-13.45 122.59-16.68 122.89-19.9 123.74-22.95L123.74-22.95Q123.84-23.15 123.84-23.25L123.84-23.25ZM117.94-13.9L117.94-13.9Q118.19-14.95 118.61-16.07 119.04-17.2 119.29-18.3L119.29-18.3Q119.29-18.4 119.36-18.65 119.44-18.9 119.39-18.9L119.39-18.9Q119.29-18.95 119.09-18.65 118.89-18.35 118.89-18.3L118.89-18.3Q118.19-17.15 117.64-15.88 117.09-14.6 116.64-13.55L116.64-13.55Q116.54-13.3 116.21-12.7 115.89-12.1 115.56-11.43 115.24-10.75 115.01-10.18 114.79-9.6 114.94-9.5L114.94-9.5Q115.04-9.5 115.24-9.73 115.44-9.95 115.54-10.05L115.54-10.05Q115.69-10.3 115.89-10.58 116.09-10.85 116.29-11.1L116.29-11.1Q115.99-9.85 115.76-9.03 115.54-8.2 115.29-7.55 115.04-6.9 114.71-6.33 114.39-5.75 113.84-5L113.84-5Q113.44-4.45 112.86-3.83 112.29-3.2 111.56-2.68 110.84-2.15 109.99-1.83 109.14-1.5 108.19-1.5L108.19-1.5Q106.99-1.5 106.29-2.13 105.59-2.75 105.24-3.68 104.89-4.6 104.79-5.65 104.69-6.7 104.74-7.6L104.74-7.6Q104.94-11.2 106.41-14.63 107.89-18.05 110.54-20.75L110.54-20.75Q110.54-20.8 110.69-20.95 110.84-21.1 110.84-21.15L110.84-21.15Q110.74-21.25 110.59-21.15L110.59-21.15 110.39-21.05Q109.49-20.5 108.51-19.55 107.54-18.6 106.66-17.32 105.79-16.05 105.06-14.5 104.34-12.95 103.84-11.3L103.84-11.3Q103.59-10.45 103.46-9.28 103.34-8.1 103.41-6.83 103.49-5.55 103.76-4.28 104.04-3 104.66-2.02 105.29-1.05 106.26-0.48 107.24 0.1 108.69 0L108.69 0Q110.14-0.1 111.01-0.5 111.89-0.9 112.44-1.35L112.44-1.35Q113.14-1.9 113.69-2.5 114.24-3.1 114.79-3.65L114.79-3.65Q114.49-1.9 114.21-0.68 113.94 0.55 113.69 1.65L113.69 1.65Q113.34 3.15 113.04 4.53 112.74 5.9 112.39 6.95 112.04 8 111.59 8.68 111.14 9.35 110.54 9.45L110.54 9.45Q109.84 9.45 109.84 9.6L109.84 9.6Q109.79 9.75 110.04 9.85 110.29 9.95 110.54 10L110.54 10Q111.29 10.15 111.96 9.75 112.64 9.35 113.16 8.58 113.69 7.8 114.11 6.75 114.54 5.7 114.84 4.6L114.84 4.6Q115.44 2.3 115.84 0.13 116.24-2.05 116.59-4.45L116.59-4.45Q116.94-6.8 117.16-9.15 117.39-11.5 117.94-13.9ZM112.34 10.9L112.34 10.9Q112.24 10.8 112.06 10.83 111.89 10.85 111.84 10.85L111.84 10.85Q110.99 11 110.16 10.8 109.34 10.6 108.49 10.25L108.49 10.25Q107.54 9.85 106.74 9.28 105.94 8.7 104.94 8.05L104.94 8.05Q104.84 7.95 104.64 7.85 104.44 7.75 104.44 7.85L104.44 7.85Q104.39 7.9 104.51 8.1 104.64 8.3 104.74 8.4L104.74 8.4Q105.39 9.25 106.11 10 106.84 10.75 107.99 11.2L107.99 11.2Q108.74 11.5 109.54 11.6 110.34 11.7 111.01 11.63 111.69 11.55 112.09 11.35 112.49 11.15 112.34 10.9ZM138.78-20.4L138.78-20.4Q139.19-19.9 139.41-19.15 139.63-18.4 139.59-17.53 139.53-16.65 139.19-15.7 138.84-14.75 138.09-13.85L138.09-13.85Q136.63-12.15 134.91-11.23 133.19-10.3 131.78-10.3L131.78-10.3Q130.94-10.3 131.78-10.6L131.78-10.6Q132.24-10.75 132.86-11.08 133.49-11.4 134.19-11.88 134.88-12.35 135.61-13 136.34-13.65 136.94-14.5L136.94-14.5Q137.94-15.9 138.11-17.23 138.28-18.55 137.59-19.25L137.59-19.25Q136.99-19.85 136.19-19.93 135.38-20 133.78-19.05L133.78-19.05Q132.34-18.2 131.19-16.95 130.03-15.7 129.03-14.3L129.03-14.3Q128.49-13.6 128.31-13.6 128.13-13.6 128.44-14.5L128.44-14.5Q129.03-16.25 130.11-17.75 131.19-19.25 132.69-20.3L132.69-20.3Q133.78-21.05 134.71-21.35 135.63-21.65 136.41-21.6 137.19-21.55 137.78-21.23 138.38-20.9 138.78-20.4ZM141.49-16.9L141.49-16.9Q141.28-15.7 140.86-14.88 140.44-14.05 139.91-13.48 139.38-12.9 138.86-12.55 138.34-12.2 137.94-11.9L137.94-11.9Q137.74-11.75 137.63-11.85 137.53-11.95 137.78-12.2L137.78-12.2Q138.69-12.95 139.61-14.23 140.53-15.5 140.59-17.05L140.59-17.05Q140.59-19.7 139.28-21.1L139.28-21.1Q137.99-22.5 136.03-22.33 134.09-22.15 131.99-20.8L131.99-20.8Q130.63-19.95 129.61-18.82 128.59-17.7 127.83-16.43 127.08-15.15 126.61-13.8 126.14-12.45 125.94-11.1L125.94-11.1Q125.73-9.8 125.56-8.3 125.39-6.8 125.56-5.35 125.73-3.9 126.48-2.58 127.23-1.25 128.84-0.3L128.84-0.3Q129.09-0.15 129.36-0.1 129.63-0.05 129.63 0L129.63 0Q129.63 0.1 129.38 0.13 129.13 0.15 128.84 0.05L128.84 0.05Q127.58-0.2 126.71-0.98 125.83-1.75 125.28-2.75 124.73-3.75 124.44-4.85 124.14-5.95 124.08-6.85L124.08-6.85Q123.78-10.8 125.19-14.65L125.19-14.65Q125.48-15.45 125.96-16.45 126.44-17.45 127.14-18.48 127.83-19.5 128.78-20.48 129.74-21.45 130.94-22.2L130.94-22.2Q132.09-22.9 133.34-23.25 134.59-23.6 135.84-23.58 137.09-23.55 138.19-23.13 139.28-22.7 140.13-21.85L140.13-21.85Q140.88-21.05 141.31-19.8 141.74-18.55 141.49-16.9ZM136.94-18.7L136.94-18.7Q137.53-18 137.09-16.53 136.63-15.05 134.99-13.55L134.99-13.55Q134.09-12.7 133.24-12.18 132.38-11.65 131.09-11.25L131.09-11.25Q130.53-9.35 130.38-7.5 130.24-5.65 130.49-4.5L130.49-4.5Q130.53-4.05 130.81-3.63 131.09-3.2 131.61-2.98 132.13-2.75 132.99-2.8 133.84-2.85 135.09-3.35L135.09-3.35Q135.44-3.5 135.51-3.43 135.59-3.35 135.19-3.1L135.19-3.1Q134.28-2.4 133.28-2.13 132.28-1.85 131.41-1.95 130.53-2.05 129.91-2.55 129.28-3.05 129.09-3.9L129.09-3.9Q128.69-5.65 128.74-7.55 128.78-9.45 129.31-11.3 129.84-13.15 130.81-14.78 131.78-16.4 133.24-17.55L133.24-17.55Q135.94-19.7 136.94-18.7ZM136.44-2.75L136.44-2.75Q136.09-2.25 135.56-1.78 135.03-1.3 134.36-0.93 133.69-0.55 132.96-0.3 132.24-0.05 131.49-0.05L131.49-0.05Q130.19-0.05 129.06-0.63 127.94-1.2 127.33-2.95L127.33-2.95Q127.23-3.15 127.23-3.33 127.23-3.5 127.33-3.5L127.33-3.5Q127.53-3.6 127.73-3.38 127.94-3.15 128.13-2.9L128.13-2.9Q128.69-2.25 129.56-1.75 130.44-1.25 131.24-1.25L131.24-1.25Q132.74-1.25 133.84-1.7 134.94-2.15 135.94-2.9L135.94-2.9Q136.19-3.05 136.51-3.2 136.84-3.35 136.44-2.75ZM135.74-17.35L135.74-17.35Q135.53-17.75 134.28-16.7L134.28-16.7Q133.13-15.8 132.46-14.63 131.78-13.45 131.28-12.05L131.28-12.05Q132.24-12.5 133.03-13.08 133.84-13.65 134.53-14.2L134.53-14.2Q135.28-14.85 135.63-15.9 135.99-16.95 135.74-17.35ZM146.83-18.45L146.83-18.45Q146.88-18.9 147.13-19.53 147.38-20.15 147.81-20.73 148.23-21.3 148.83-21.78 149.43-22.25 150.18-22.4L150.18-22.4Q151.78-22.7 152.83-22.2 153.88-21.7 154.43-21.05L154.43-21.05Q154.63-20.75 154.58-20.7L154.58-20.7Q154.48-20.6 154.23-20.75L154.23-20.75Q153.93-20.95 153.26-21.1 152.58-21.25 151.81-21.18 151.03-21.1 150.31-20.7 149.58-20.3 149.13-19.4L149.13-19.4Q148.73-18.55 148.58-17.65 148.43-16.75 148.41-15.98 148.38-15.2 148.43-14.65 148.48-14.1 148.48-13.9L148.48-13.9Q148.58-13.35 148.66-12.53 148.73-11.7 148.73-10.85 148.73-10 148.68-9.18 148.63-8.35 148.48-7.75L148.48-7.75Q148.43-7.6 148.36-7.25 148.28-6.9 148.18-6.9L148.18-6.9Q147.93-6.9 147.93-7.25 147.93-7.6 147.93-7.75L147.93-7.75Q147.83-9 147.58-10.28 147.33-11.55 147.11-12.9 146.88-14.25 146.78-15.63 146.68-17 146.83-18.45ZM145.08-8.55L145.08-8.55Q145.13-9.55 144.91-11.38 144.68-13.2 144.73-15.6L144.73-15.6Q144.78-16.85 144.98-18.18 145.18-19.5 145.93-20.8L145.93-20.8Q146.73-22.2 147.96-22.88 149.18-23.55 150.08-23.5L150.08-23.5Q150.23-23.5 150.38-23.5 150.53-23.5 150.53-23.45L150.53-23.45Q150.53-23.35 150.48-23.38 150.43-23.4 150.13-23.3L150.13-23.3Q149.23-23.05 148.53-22.48 147.83-21.9 147.33-21.15 146.83-20.4 146.53-19.6 146.23-18.8 146.18-18.15L146.18-18.15Q145.88-15.4 146.23-13.35L146.23-13.35Q146.48-11.7 146.63-9.93 146.78-8.15 146.51-6.68 146.23-5.2 145.46-4.23 144.68-3.25 143.08-3.15L143.08-3.15Q142.93-3.15 142.71-3.18 142.48-3.2 142.48-3.3L142.48-3.3Q142.48-3.4 142.93-3.65L142.93-3.65Q144.23-4.25 144.63-5.4 145.03-6.55 145.08-8.55ZM139.78-2.65L139.78-2.65Q140.48-1.55 142.01-1.03 143.53-0.5 145.63-1.1L145.63-1.1Q146.68-1.4 147.48-2.15 148.28-2.9 148.81-3.83 149.33-4.75 149.61-5.75 149.88-6.75 149.93-7.6L149.93-7.6Q149.98-9 149.86-10.35 149.73-11.7 149.56-12.98 149.38-14.25 149.26-15.45 149.13-16.65 149.23-17.8L149.23-17.8Q149.33-19.05 149.93-19.7 150.53-20.35 151.41-20.53 152.28-20.7 153.23-20.4 154.18-20.1 154.98-19.45L154.98-19.45Q155.18-19.35 155.13-19.2L155.13-19.2Q155.13-19.1 155.03-19.15 154.93-19.2 154.83-19.25L154.83-19.25Q152.98-19.85 151.96-19.6 150.93-19.35 150.83-17.8L150.83-17.8Q150.73-16 151.11-13.58 151.48-11.15 151.38-8.2L151.38-8.2Q151.43-7.2 151.16-5.9 150.88-4.6 150.26-3.38 149.63-2.15 148.61-1.2 147.58-0.25 146.18 0L146.18 0Q143.53 0.4 141.96-0.3 140.38-1 139.68-2.45L139.68-2.45Q139.58-2.75 139.58-2.8L139.58-2.8 139.63-2.8Q139.63-2.8 139.78-2.65ZM141.98-2.65L141.98-2.65Q142.93-2.4 144.28-2.45L144.28-2.45Q144.73-2.5 145.38-2.7 146.03-2.9 146.08-2.8L146.08-2.8Q146.23-2.6 145.78-2.3 145.33-2 144.63-1.78 143.93-1.55 143.18-1.48 142.43-1.4 141.93-1.6L141.93-1.6Q140.98-2 140.56-2.48 140.13-2.95 139.78-3.65L139.78-3.65 139.68-3.85Q139.58-4.05 139.63-4.1L139.63-4.1Q139.68-4.15 139.78-4.1L139.78-4.1Q139.83-4.05 139.83-4L139.83-4Q140.43-3.45 140.86-3.18 141.28-2.9 141.98-2.65ZM169.18-22.2L169.18-22.2Q169.23-22.15 169.23-21.98 169.23-21.8 169.18-21.7L169.18-21.7Q168.73-20.25 167.63-19.65 166.53-19.05 165.68-19.05L165.68-19.05Q164.63-19.05 163.53-19.23 162.43-19.4 161.43-20.15L161.43-20.15Q161.33-20.25 161.18-20.35 161.03-20.45 161.03-20.55L161.03-20.55Q161.03-20.7 161.18-20.78 161.33-20.85 161.43-20.9L161.43-20.9Q161.88-21 162.61-21.08 163.33-21.15 164.03-21.05L164.03-21.05Q164.53-20.95 165.23-20.95 165.93-20.95 166.66-21.05 167.38-21.15 167.98-21.38 168.58-21.6 168.88-22.05L168.88-22.05Q169.03-22.25 169.18-22.2ZM169.53-23.75L169.53-23.75 169.38-23.5Q168.53-22.4 167.58-22.08 166.63-21.75 165.58-21.8 164.53-21.85 163.46-22.08 162.38-22.3 161.33-22.35L161.33-22.35Q159.93-22.4 158.53-21.5 157.13-20.6 156.13-18.35L156.13-18.35Q155.98-18.05 155.93-18.23 155.88-18.4 155.93-18.55L155.93-18.55Q156.33-20.05 156.88-21.05 157.43-22.05 158.06-22.68 158.68-23.3 159.38-23.6 160.08-23.9 160.83-24L160.83-24Q161.68-26.85 162.16-29.58 162.63-32.3 162.23-34.75L162.23-34.75Q162.23-34.95 162.23-34.95L162.23-34.95Q162.33-35 162.43-34.9 162.53-34.8 162.53-34.75L162.53-34.75Q163.63-32.35 163.43-29.63 163.23-26.9 162.43-23.9L162.43-23.9Q162.68-23.85 162.83-23.85 162.98-23.85 163.18-23.85L163.18-23.85Q163.43-25.15 163.66-26.63 163.88-28.1 164.01-29.45 164.13-30.8 164.08-31.9 164.03-33 163.73-33.55L163.73-33.55Q163.58-34 163.73-34L163.73-34Q163.83-34 163.88-33.9 163.93-33.8 164.03-33.7L164.03-33.7Q164.73-33 165.13-31.8 165.53-30.6 165.68-29.25 165.83-27.9 165.78-26.58 165.73-25.25 165.48-24.25L165.48-24.25 165.28-23.45Q165.43-23.35 165.58-23.35 165.73-23.35 165.88-23.3L165.88-23.3Q166.18-24.8 166.41-26.3 166.63-27.8 166.58-29.45L166.58-29.45Q166.58-29.8 166.63-29.8L166.63-29.8Q166.73-29.8 166.78-29.65 166.83-29.5 166.88-29.4L166.88-29.4Q167.48-28.3 167.46-26.65 167.43-25 167.18-23.15L167.18-23.15Q168.28-23.15 169.28-23.75L169.28-23.75Q169.53-23.9 169.53-23.75ZM159.18-20.35L159.18-20.35Q159.18-20.1 158.91-19.85 158.63-19.6 158.48-19.5L158.48-19.5Q158.23-19.3 157.91-19.03 157.58-18.75 157.33-18.45L157.33-18.45Q157.08-18.05 156.86-17.75 156.63-17.45 156.48-16.9L156.48-16.9Q156.43-16.8 156.36-16.73 156.28-16.65 156.23-16.7L156.23-16.7Q156.08-16.85 156.23-17.35L156.23-17.35Q156.43-18.1 156.63-18.57 156.83-19.05 157.38-19.6L157.38-19.6Q157.58-19.8 157.88-20 158.18-20.2 158.48-20.35 158.78-20.5 158.98-20.5 159.18-20.5 159.18-20.35ZM163.08-0.25L163.08-0.25Q163.33-0.35 163.28-0.2 163.23-0.05 163.13 0L163.13 0Q162.23 0.3 161.23-0.1 160.23-0.5 159.38-1.35 158.53-2.2 157.93-3.33 157.33-4.45 157.18-5.55L157.18-5.55Q156.93-7.9 157.13-10.1 157.33-12.3 157.88-14.45L157.88-14.45 158.73-17.6Q158.43-17.6 158.13-17.75L158.13-17.75Q157.78-17.85 157.78-18L157.78-18Q157.78-18.1 158.13-18.3L158.13-18.3Q159.53-19 160.96-18.9 162.38-18.8 163.83-18.55L163.83-18.55Q164.73-18.4 165.66-18.32 166.58-18.25 167.68-18.7L167.68-18.7Q167.78-18.8 167.88-18.75L167.88-18.75Q167.98-18.65 167.83-18.4L167.83-18.4Q167.53-17.75 166.98-17.45 166.43-17.15 165.83-17L165.83-17Q165.43-15.7 165.13-14.68 164.83-13.65 164.63-12.95L164.63-12.95Q164.08-10.55 163.36-8.08 162.63-5.6 162.38-3.9L162.38-3.9Q162.28-3.35 162.18-3.3L162.18-3.3Q162.08-3.25 161.98-3.5 161.88-3.75 161.83-3.9L161.83-3.9Q161.63-5.35 161.76-6.93 161.88-8.5 162.23-10.15 162.58-11.8 163.03-13.48 163.48-15.15 163.98-16.85L163.98-16.85Q163.73-16.85 163.48-16.85 163.23-16.85 162.98-16.9L162.98-16.9Q162.58-15.85 162.16-14.83 161.73-13.8 161.33-12.9L161.33-12.9Q161.28-12.8 161.11-12.43 160.93-12.05 160.83-12.05L160.83-12.05Q160.63-12.1 160.68-12.53 160.73-12.95 160.73-13.1L160.73-13.1Q160.83-13.85 161.06-14.85 161.28-15.85 161.48-17L161.48-17Q161.23-17.05 160.93-17.07 160.63-17.1 160.33-17.2L160.33-17.2Q160.03-16.2 159.76-15.25 159.48-14.3 159.23-13.35L159.23-13.35Q158.83-11.6 158.63-9.63 158.43-7.65 158.63-5.55L158.63-5.55Q158.73-4.6 159.16-3.6 159.58-2.6 160.18-1.8 160.78-1 161.56-0.55 162.33-0.1 163.08-0.25ZM163.53-1.35L163.53-1.35Q163.78-1.55 163.83-1.38 163.88-1.2 163.63-1.05L163.63-1.05Q163.43-0.9 163.11-0.83 162.78-0.75 162.38-0.8 161.98-0.85 161.53-1.1 161.08-1.35 160.68-1.9L160.68-1.9Q160.33-2.35 160.11-3.2 159.88-4.05 159.78-4.88 159.68-5.7 159.73-6.3 159.78-6.9 159.98-6.9L159.98-6.9Q160.23-6.9 160.36-6.2 160.48-5.5 160.58-5.05L160.58-5.05Q160.78-4.25 161.13-3.4 161.48-2.55 161.88-2.05L161.88-2.05Q162.38-1.4 162.78-1.28 163.18-1.15 163.53-1.35Z" opacity="1" transform="matrix(1,0,0,1,0,0)" fill="#ffffff" class="wordmark-text-0" data-fill-palette-color="primary" id="text-0"></path></svg></g></svg></g></svg></g></svg></g><g><svg viewBox="0 0 98.88 87.11395881006865" height="87.11395881006865" width="98.88"><g><svg xmlns="http://www.w3.org/2000/svg" xmlns:xlink="http://www.w3.org/1999/xlink" version="1.1" x="0" y="0" viewBox="6.3 11.5 87.4 77" style="enable-background:new 0 0 100 100;" xml:space="preserve" height="87.11395881006865" width="98.88" class="icon-icon-0" data-fill-palette-color="accent" id="icon-0"><path d="M72.3 12.3L71.9 11.5H28.2L6.3 50 28.1 88.5H71.8L93.7 50zM33.3 25.3L9.9 47.7 28.5 14.9zM70.7 14.8L77.1 50.5 36.9 25.8zM35.5 27.3L76.5 52.5 35.5 75.8zM77 54.5L69.8 85.3 37.2 77.2zM33.5 75L9.9 50.5 33.5 27.8zM33.2 77.6L28.6 85.3 11.5 55.1zM35 78.6L66.4 86.5H30.2zM79.3 53.3L90.9 50.8 72.1 84zM90.7 48.9L79.3 51.4 73.4 18.3zM35 24.3L30 13.5H68.2z" fill="#ffffff" data-fill-palette-color="accent"></path></svg></g></svg></g></svg></g></svg></g></svg></g><defs></defs></svg><rect width="320" height="360" fill="none" stroke="none" visibility="hidden"></rect></g></svg></g></svg>